HIERARCHY
ROOT Hips
{
	OFFSET 0.00000 0.00000 0.00000
	CHANNELS 6 Xposition Yposition Zposition Zrotation Yrotation Xrotation 
	JOINT LHipJoint
	{
		OFFSET 0 0 0
		CHANNELS 3 Zrotation Yrotation Xrotation
		JOINT LeftUpLeg
		{
			OFFSET 1.36337 -1.57426 1.11036
			CHANNELS 3 Zrotation Yrotation Xrotation
			JOINT LeftLeg
			{
				OFFSET 2.38468 -6.55187 0.00000
				CHANNELS 3 Zrotation Yrotation Xrotation
				JOINT LeftFoot
				{
					OFFSET 2.37166 -6.51609 0.00000
					CHANNELS 3 Zrotation Yrotation Xrotation
					JOINT LeftToeBase
					{
						OFFSET 0.29078 -0.79891 2.01393
						CHANNELS 3 Zrotation Yrotation Xrotation
						End Site
						{
							OFFSET 0.00000 -0.00000 1.07924
						}
					}
				}
			}
		}
	}
	JOINT RHipJoint
	{
		OFFSET 0 0 0
		CHANNELS 3 Zrotation Yrotation Xrotation
		JOINT RightUpLeg
		{
			OFFSET -1.36349 -1.57426 1.11036
			CHANNELS 3 Zrotation Yrotation Xrotation
			JOINT RightLeg
			{
				OFFSET -2.29562 -6.30717 0.00000
				CHANNELS 3 Zrotation Yrotation Xrotation
				JOINT RightFoot
				{
					OFFSET -2.40985 -6.62100 0.00000
					CHANNELS 3 Zrotation Yrotation Xrotation
					JOINT RightToeBase
					{
						OFFSET -0.23197 -0.63733 1.92232
						CHANNELS 3 Zrotation Yrotation Xrotation
						End Site
						{
							OFFSET -0.00000 -0.00000 1.01562
						}
					}
				}
			}
		}
	}
	JOINT LowerBack
	{
		OFFSET 0 0 0
		CHANNELS 3 Zrotation Yrotation Xrotation
		JOINT Spine
		{
			OFFSET -0.08565 2.03602 -0.24562
			CHANNELS 3 Zrotation Yrotation Xrotation
			JOINT Spine1
			{
				OFFSET -0.00036 2.05693 0.00216
				CHANNELS 3 Zrotation Yrotation Xrotation
				JOINT Neck
				{
					OFFSET 0 0 0
					CHANNELS 3 Zrotation Yrotation Xrotation
					JOINT Neck1
					{
						OFFSET -0.03664 1.69515 0.31789
						CHANNELS 3 Zrotation Yrotation Xrotation
						JOINT Head
						{
							OFFSET 0.00932 1.70181 -0.46013
							CHANNELS 3 Zrotation Yrotation Xrotation
							End Site
							{
								OFFSET 0.01243 1.77620 -0.19377
							}
						}
					}
				}
				JOINT LeftShoulder
				{
					OFFSET 0 0 0
					CHANNELS 3 Zrotation Yrotation Xrotation
					JOINT LeftArm
					{
						OFFSET 3.74344 0.81315 -0.36647
						CHANNELS 3 Zrotation Yrotation Xrotation
						JOINT LeftForeArm
						{
							OFFSET 4.97185 -0.00000 -0.00000
							CHANNELS 3 Zrotation Yrotation Xrotation
							JOINT LeftHand
							{
								OFFSET 3.35811 -0.00000 0.00000
								CHANNELS 3 Zrotation Yrotation Xrotation
								JOINT LeftFingerBase
								{
									OFFSET 0 0 0
									CHANNELS 3 Zrotation Yrotation Xrotation
									JOINT LeftHandIndex1
									{
										OFFSET 0.62278 -0.00000 0.00000
										CHANNELS 3 Zrotation Yrotation Xrotation
										End Site
										{
											OFFSET 0.50210 -0.00000 0.00000
										}
									}
								}
								JOINT LThumb
								{
									OFFSET 0 0 0
									CHANNELS 3 Zrotation Yrotation Xrotation
									End Site
									{
										OFFSET 0.50976 -0.00000 0.50976
									}
								}
							}
						}
					}
				}
				JOINT RightShoulder
				{
					OFFSET 0 0 0
					CHANNELS 3 Zrotation Yrotation Xrotation
					JOINT RightArm
					{
						OFFSET -3.75385 0.50666 -0.06525
						CHANNELS 3 Zrotation Yrotation Xrotation
						JOINT RightForeArm
						{
							OFFSET -4.96493 -0.00000 -0.00000
							CHANNELS 3 Zrotation Yrotation Xrotation
							JOINT RightHand
							{
								OFFSET -3.34929 -0.00000 0.00000
								CHANNELS 3 Zrotation Yrotation Xrotation
								JOINT RightFingerBase
								{
									OFFSET 0 0 0
									CHANNELS 3 Zrotation Yrotation Xrotation
									JOINT RightHandIndex1
									{
										OFFSET -0.63804 -0.00000 0.00000
										CHANNELS 3 Zrotation Yrotation Xrotation
										End Site
										{
											OFFSET -0.51441 -0.00000 0.00000
										}
									}
								}
								JOINT RThumb
								{
									OFFSET 0 0 0
									CHANNELS 3 Zrotation Yrotation Xrotation
									End Site
									{
										OFFSET -0.52226 -0.00000 0.52226
									}
								}
							}
						}
					}
				}
			}
		}
	}
}
MOTION
Frames: 13
Frame Time: .0083333
31.4004 15.4800 4.2995 838.4890 80.6375 839.4320 0.0000 0.0000 0.0000 -14.4038 -4.3820 -43.1133 4.3967 12.6704 38.1467 0.0322 4.4377 -7.4178 0.0000 -0.0295 -0.0811 0.0000 0.0000 0.0000 14.3254 0.1009 -24.6879 -9.3524 -17.0292 57.3009 -3.2024 -4.4854 -35.5995 -0.3493 -3.7972 10.5069 2.5929 -0.6341 27.8963 0.0391 0.8473 9.7571 -1.7385 0.8632 -4.4763 4.1695 6.4839 -26.3767 -10.4102 12.4136 31.1364 -2.4366 4.3037 16.7482 -0.0000 -0.0000 0.0000 -86.0652 0.5620 33.2443 15.9784 -25.4914 -3.6367 -0.0000 0.0000 -15.6536 22.2953 -11.9181 -4.8401 -7.1250 0.0000 -0.0000 -3.4109 17.1438 2.2580 -0.0000 -0.0000 0.0000 74.9807 9.9524 18.4646 -19.9027 30.5250 -5.4819 0.0000 -0.0000 -18.9986 -15.9484 -27.0774 7.4115 7.1250 -0.0000 -0.0000 15.7463 -57.2783 -4.8163
31.4907 15.4862 4.2784 837.3070 81.0609 837.9260 0.0000 0.0000 0.0000 -13.6096 -4.7962 -42.0361 3.7793 11.8608 35.2413 -0.0191 4.4161 -5.5177 0.0162 -0.8205 -2.2551 0.0000 0.0000 0.0000 14.6266 -0.0260 -23.8410 -9.2634 -16.9743 56.9967 -3.2133 -4.5587 -35.6878 -0.3161 -3.6139 9.9928 2.7820 -0.5758 27.5147 0.0748 0.9482 9.7836 -1.8307 0.9136 -4.2593 4.2331 6.5683 -26.2008 -10.5270 12.5917 31.2038 -2.4610 4.3773 16.7796 0.0000 -0.0000 0.0000 -86.1631 0.7103 33.1848 15.9826 -25.4971 -3.6385 -0.0000 0.0000 -15.4054 21.9843 -11.9119 -4.7634 -7.1250 0.0000 -0.0000 -3.6276 17.1797 2.3991 0.0000 -0.0000 0.0000 75.0867 10.0692 18.6118 -19.9588 30.5926 -5.5103 0.0000 -0.0000 -19.0445 -15.8612 -26.9473 7.3369 7.1250 -0.0000 -0.0000 15.7601 -57.1337 -4.7652
31.5817 15.4779 4.2552 836.1740 81.7048 836.4370 0.0000 0.0000 0.0000 -12.5725 -5.0669 -40.8593 3.2722 11.1232 32.6966 -0.0460 4.3903 -3.9393 0.0347 -1.2018 -3.3043 0.0000 0.0000 0.0000 15.1782 -0.0339 -22.9772 -9.1907 -16.9289 56.7473 -3.2309 -4.6953 -35.8380 -0.2407 -3.1572 8.7166 3.1212 -0.5177 27.0656 0.1790 1.0948 9.9089 -1.9431 0.9957 -3.8953 4.4430 6.6595 -25.9771 -10.9302 12.8171 31.1633 -2.6233 4.4551 16.7978 -0.0000 0.0000 0.0000 -86.2767 0.7107 33.1177 16.0019 -25.5232 -3.6468 -0.0000 0.0000 -15.1936 21.7018 -11.9813 -4.7230 -7.1250 0.0000 -0.0000 -3.8272 17.1319 2.5357 -0.0000 0.0000 0.0000 75.1444 10.3333 18.7906 -19.9851 30.6244 -5.5237 0.0000 -0.0000 -19.1501 -16.0062 -26.8179 7.3742 7.1250 -0.0000 -0.0000 15.5344 -57.0387 -4.6588
31.6765 15.4660 4.2245 833.4320 82.2247 833.4010 0.0000 0.0000 0.0000 -11.6592 -5.3289 -39.9194 2.8701 10.4817 30.5511 -0.0872 5.2399 -2.2451 0.0539 -1.4979 -4.1200 0.0000 0.0000 0.0000 15.4755 0.0502 -22.1161 -9.1313 -16.8914 56.5429 -3.2694 -4.6078 -35.9999 -0.2076 -2.9334 8.0934 3.1771 -0.4008 26.7932 0.2890 1.2375 9.8797 -1.8909 1.0586 -3.7921 4.5986 6.7540 -25.7028 -11.3044 13.1077 31.2890 -2.7542 4.5579 16.8910 0.0000 0.0000 0.0000 -86.5344 0.9058 32.8317 15.9834 -25.4982 -3.6388 -0.0000 0.0000 -14.7368 21.5612 -12.3070 -4.8144 -7.1250 0.0000 -0.0000 -3.9372 16.7981 2.6377 0.0000 0.0000 0.0000 75.0819 10.3730 19.2555 -20.0080 30.6520 -5.5354 0.0000 -0.0000 -19.4959 -16.3115 -26.6367 7.4744 7.1250 -0.0000 -0.0000 15.1137 -56.9264 -4.4873
31.7680 15.4535 4.1938 830.1110 82.4770 829.8240 0.0000 0.0000 0.0000 -11.2774 -5.2668 -39.1035 2.5569 9.9407 28.7850 -0.1360 6.8495 -0.2839 0.0909 -1.9441 -5.3512 0.0000 0.0000 0.0000 15.4969 0.1185 -21.3060 -9.0848 -16.8620 56.3831 -3.3196 -4.4149 -36.1769 -0.2158 -2.9909 8.2535 3.1438 -0.2866 26.3703 0.2636 1.3543 10.0239 -1.9200 1.1243 -3.4246 4.4440 6.7514 -25.7430 -11.2655 13.1858 31.3932 -2.6941 4.5730 16.9461 -0.0000 -0.0000 0.0000 -86.5896 0.6311 32.8472 15.9193 -25.4111 -3.6113 -0.0000 0.0000 -14.5090 21.2941 -12.1818 -4.7018 -7.1250 0.0000 -0.0000 -4.1184 16.9562 2.7454 -0.0000 -0.0000 0.0000 75.1458 10.7342 19.4483 -19.9752 30.6124 -5.5187 0.0000 -0.0000 -19.8074 -16.4287 -26.5001 7.4951 7.1250 -0.0000 -0.0000 14.9151 -56.8177 -4.3870
31.8531 15.4414 4.1590 825.5510 82.7611 825.2450 0.0000 0.0000 0.0000 -10.8867 -5.0671 -38.6765 2.3059 9.4762 27.2965 -0.2169 9.4100 1.4342 0.0896 -1.9307 -5.3141 0.0000 0.0000 0.0000 15.4960 0.3856 -20.8160 -9.0538 -16.8422 56.2762 -3.3424 -4.3137 -36.2513 -0.2129 -2.9705 8.1967 3.0918 -0.0888 25.9938 0.2399 1.5515 9.9270 -1.9632 1.2085 -3.3419 4.1949 6.6914 -25.4804 -11.0388 13.1476 31.4899 -2.5678 4.5704 16.8806 -0.0000 0.0000 0.0000 -86.5925 0.6448 32.9265 15.9483 -25.4505 -3.6237 -0.0000 0.0000 -14.4612 20.8658 -11.7505 -4.4388 -7.1250 0.0000 -0.0000 -4.4031 17.4527 2.8884 -0.0000 0.0000 0.0000 75.2771 10.7040 19.6029 -20.0831 30.7423 -5.5738 0.0000 -0.0000 -19.8909 -16.3896 -26.7574 7.5430 7.1250 -0.0000 -0.0000 15.1018 -57.0605 -4.5329
31.9536 15.4344 4.1196 823.1850 82.9664 822.6710 0.0000 0.0000 0.0000 -10.6221 -4.8811 -38.0598 2.1121 9.0957 26.0952 -0.3264 12.0186 2.6078 0.0832 -1.8607 -5.1209 0.0000 0.0000 0.0000 15.5029 0.2610 -20.0762 -9.0098 -16.8140 56.1238 -3.3901 -4.1982 -36.4471 -0.2031 -2.9021 8.0063 3.0968 -0.0534 25.7393 0.2285 1.5726 9.8764 -1.9784 1.2131 -3.2739 4.2813 6.7500 -25.1350 -11.1388 13.2779 31.5577 -2.6044 4.6389 16.8685 -0.0000 -0.0000 0.0000 -86.5600 0.6589 32.8816 16.0033 -25.5252 -3.6474 -0.0000 0.0000 -14.4138 20.6525 -11.7277 -4.3810 -7.1250 0.0000 -0.0000 -4.5516 17.4955 2.9822 -0.0000 -0.0000 0.0000 75.4386 10.5329 19.8973 -20.3642 31.0787 -5.7182 0.0000 -0.0000 -20.0135 -16.4905 -26.7957 7.6015 7.1250 -0.0000 -0.0000 15.0186 -57.1192 -4.5286
32.0481 15.4222 4.0752 818.7870 83.1924 818.0950 0.0000 0.0000 0.0000 -10.2856 -4.6320 -37.4980 1.9638 8.7903 25.1416 -0.4984 14.7226 3.0892 0.0510 -1.4573 -4.0079 0.0000 0.0000 0.0000 15.4794 0.4113 -19.4300 -8.9779 -16.7935 56.0137 -3.4201 -4.1547 -36.5818 -0.1825 -2.7516 7.5879 3.0069 0.0373 25.6982 0.2055 1.6515 9.8197 -1.9735 1.2432 -3.3144 4.4864 6.8990 -24.9547 -11.4089 13.5780 31.6820 -2.6948 4.7586 16.9772 0.0000 0.0000 0.0000 -86.5223 0.6041 32.8541 16.0928 -25.6463 -3.6860 -0.0000 0.0000 -14.4287 20.5643 -11.6145 -4.3194 -7.1250 0.0000 -0.0000 -4.6102 17.6229 3.0079 0.0000 0.0000 0.0000 75.5578 10.4758 20.2510 -20.6107 31.3711 -5.8459 0.0000 -0.0000 -20.1681 -16.5778 -26.3968 7.5392 7.1250 -0.0000 -0.0000 14.7027 -56.7478 -4.2976
32.1403 15.4090 4.0285 814.2260 83.3603 813.3360 0.0000 0.0000 0.0000 -9.9432 -4.4238 -36.9856 1.8609 8.5701 24.4596 -0.6796 16.9625 3.3184 0.0321 -1.1558 -3.1777 0.0000 0.0000 0.0000 15.4395 0.6009 -18.7408 -8.9459 -16.7728 55.9030 -3.4616 -4.1100 -36.7738 -0.1594 -2.5727 7.0913 2.9247 0.1049 25.5234 0.1730 1.7132 9.9545 -1.9704 1.2804 -3.0796 4.4852 7.0402 -24.9757 -11.4630 13.8270 31.7166 -2.6599 4.8496 17.0376 -0.0000 -0.0000 0.0000 -86.4634 0.2817 32.8851 16.1660 -25.7453 -3.7178 -0.0000 0.0000 -14.5609 20.7256 -11.8575 -4.4457 -7.1250 0.0000 -0.0000 -4.5042 17.3517 2.9652 -0.0000 -0.0000 0.0000 75.6061 10.7414 20.5916 -20.7862 31.5779 -5.9376 0.0000 -0.0000 -20.3034 -16.5383 -26.4377 7.5312 7.1250 -0.0000 -0.0000 14.7665 -56.7795 -4.3282
32.2286 15.3918 3.9789 810.3900 83.5847 809.3970 0.0000 0.0000 0.0000 -9.5559 -4.1884 -36.7447 1.7992 8.4346 24.0420 -0.7645 18.1157 3.7696 0.0712 -1.7209 -4.7349 0.0000 0.0000 0.0000 15.5212 0.8047 -18.1560 -8.9282 -16.7613 55.8415 -3.4904 -4.1563 -36.9378 -0.1466 -2.4673 6.7989 2.8957 0.1517 25.2651 0.1974 1.7596 10.0808 -1.9291 1.3094 -2.8154 4.4766 7.1167 -24.8616 -11.5412 13.9688 31.6460 -2.6597 4.9030 17.0012 0.0000 0.0000 0.0000 -86.3873 -0.0636 32.9976 16.2105 -25.8052 -3.7371 -0.0000 0.0000 -14.8543 21.2324 -12.7723 -4.9093 -7.1250 0.0000 -0.0000 -4.1827 16.3349 2.8452 0.0000 0.0000 0.0000 75.6047 10.8345 20.9467 -21.0814 31.9232 -6.0929 0.0000 -0.0000 -20.4991 -16.5981 -26.6596 7.6177 7.1250 -0.0000 -0.0000 14.8294 -57.0090 -4.4301
32.3145 15.3740 3.9303 807.1150 83.9409 806.0710 0.0000 0.0000 0.0000 -9.0914 -3.8359 -36.7353 1.7794 8.3906 23.9069 -0.7738 18.4977 4.2338 0.1393 -2.4059 -6.6287 0.0000 0.0000 0.0000 15.8056 1.0031 -17.6792 -8.9198 -16.7559 55.8125 -3.4969 -4.3538 -37.0507 -0.1335 -2.3549 6.4874 3.0843 0.1674 25.0243 0.2273 1.8216 10.2430 -2.0093 1.3550 -2.5123 4.4776 7.1330 -24.8475 -11.7149 14.0329 31.4965 -2.7174 4.9104 16.9529 0.0000 0.0000 0.0000 -86.2018 -0.5811 33.2619 16.3441 -25.9850 -3.7955 -0.0000 0.0000 -15.2278 21.4193 -12.8587 -4.9894 -7.1250 0.0000 -0.0000 -4.0569 16.2250 2.7688 0.0000 0.0000 0.0000 75.6704 10.8811 21.1080 -21.4817 32.3863 -6.3060 0.0000 -0.0000 -20.6436 -16.6382 -26.6788 7.6420 7.1250 -0.0000 -0.0000 14.7985 -57.0361 -4.4303
32.4069 15.3637 3.8766 804.1880 83.8989 803.0280 0.0000 0.0000 0.0000 -9.1550 -3.3932 -36.7632 1.8111 8.4609 24.1230 -0.7703 18.7078 4.6102 0.1782 -2.7192 -7.4978 0.0000 0.0000 0.0000 15.5910 1.0098 -17.1451 -8.9195 -16.7556 55.8114 -3.5324 -4.3148 -37.2126 -0.1057 -2.0967 5.7729 2.8247 0.2275 25.1468 0.2080 1.8417 10.2389 -1.8913 1.3569 -2.5828 4.4086 7.1823 -24.7172 -11.8494 14.1719 31.3615 -2.7304 4.9524 16.8828 0.0000 0.0000 0.0000 -86.1306 -0.7213 33.3464 16.6298 -26.3672 -3.9215 -0.0000 0.0000 -15.4588 21.2788 -12.1533 -4.6873 -7.1250 0.0000 -0.0000 -4.1281 16.9880 2.7491 0.0000 0.0000 0.0000 75.6430 10.6896 21.4785 -21.8138 32.7660 -6.4848 0.0000 -0.0000 -20.8361 -16.6585 -26.7371 7.6671 7.1250 -0.0000 -0.0000 14.8106 -57.0974 -4.4561
32.5022 15.3517 3.8154 800.8140 83.7004 799.4800 0.0000 0.0000 0.0000 -9.4585 -2.7512 -36.9116 1.8960 8.6460 24.6942 -0.7211 18.6730 5.2747 0.2117 -2.9619 -8.1728 0.0000 0.0000 0.0000 15.1844 1.0591 -16.5377 -8.9285 -16.7615 55.8424 -3.5724 -4.2624 -37.3902 -0.0714 -1.7240 4.7434 2.4813 0.2987 25.2902 0.1009 1.8590 10.3054 -1.8185 1.3626 -2.5849 4.4033 7.2700 -24.5948 -11.9260 14.2905 31.1546 -2.7316 5.0008 16.7731 0.0000 0.0000 0.0000 -86.0016 -0.9047 33.3810 16.8742 -26.6917 -4.0307 -0.0000 0.0000 -15.5597 21.3652 -11.6999 -4.5357 -7.1250 0.0000 -0.0000 -4.0524 17.4622 2.6563 0.0000 0.0000 0.0000 75.6825 10.5788 21.7583 -22.0588 33.0434 -6.6179 0.0000 -0.0000 -20.9384 -16.7110 -26.8336 7.7178 7.1250 -0.0000 -0.0000 14.8110 -57.2029 -4.4942
